<?xml version="1.0" encoding="UTF-8"?>
<svg width="33px" height="33px" viewBox="0 0 33 33" version="1.1" xmlns="http://www.w3.org/2000/svg" xmlns:xlink="http://www.w3.org/1999/xlink">
    <!-- Generator: Sketch 51.3 (57544) - http://www.bohemiancoding.com/sketch -->
    <title>Group 37</title>
    <desc>Created with Sketch.</desc>
    <defs></defs>
    <g id="Page-1" stroke="none" stroke-width="1" fill="none" fill-rule="evenodd" stroke-linecap="round">
        <g id="LP-Icons---Contact-page" transform="translate(-296.000000, -406.000000)" stroke="#297BBA">
            <g id="Group-37" transform="translate(296.000000, 407.000000)">
                <path d="M18.1465,24.6753 C18.1465,23.6763 17.3365,22.8663 16.3375,22.8663 C15.3385,22.8663 14.5295,23.6763 14.5295,24.6753 C14.5295,25.6743 15.3385,26.4843 16.3375,26.4843 C17.3365,26.4843 18.1465,25.6743 18.1465,24.6753 Z" id="Stroke-31"></path>
                <path d="M16.3379,20.4971 C15.5099,20.4971 14.8379,19.8251 14.8379,18.9971 L14.8379,13.9101 L16.3379,13.9101 C18.0059,13.9101 19.3619,12.5541 19.3619,10.8871 C19.3619,9.2201 18.0059,7.8631 16.3379,7.8631 C14.6709,7.8631 13.3149,9.2201 13.3149,10.8871 C13.3149,11.7151 12.6429,12.3871 11.8149,12.3871 C10.9859,12.3871 10.3149,11.7151 10.3149,10.8871 C10.3149,7.5651 13.0169,4.8631 16.3379,4.8631 C19.6599,4.8631 22.3619,7.5651 22.3619,10.8871 C22.3619,13.6901 20.4369,16.0531 17.8379,16.7211 L17.8379,18.9971 C17.8379,19.8251 17.1659,20.4971 16.3379,20.4971 Z" id="Stroke-33"></path>
                <path d="M31.7393,15.6738 C31.7393,7.1678 24.8433,0.2728 16.3383,0.2728 C7.8323,0.2728 0.9373,7.1678 0.9373,15.6738 C0.9373,24.1788 7.8323,31.0738 16.3383,31.0738 C24.8433,31.0738 31.7393,24.1788 31.7393,15.6738 Z" id="Stroke-35"></path>
            </g>
        </g>
    </g>
</svg>