<?xml version="1.0" encoding="UTF-8"?>
<svg width="35px" height="32px" viewBox="0 0 35 32" version="1.1" xmlns="http://www.w3.org/2000/svg" xmlns:xlink="http://www.w3.org/1999/xlink">
    <!-- Generator: Sketch 51.3 (57544) - http://www.bohemiancoding.com/sketch -->
    <title>Group</title>
    <desc>Created with Sketch.</desc>
    <defs></defs>
    <g id="Page-1" stroke="none" stroke-width="1" fill="none" fill-rule="evenodd" stroke-linecap="round">
        <g id="LP-Icons---Contact-page" transform="translate(-355.000000, -408.000000)" stroke="#297BBA">
            <g id="Group" transform="translate(356.000000, 409.000000)">
                <path d="M32.5229,6.8296 L32.5229,17.9466 C32.5229,21.6196 29.5449,24.5966 25.8729,24.5966 L5.6279,24.5966 L0.1759,30.0486 L0.1759,24.5966 L0.1759,22.8966 L0.1759,6.8296 C0.1759,3.1566 3.1539,0.1786 6.8269,0.1786 L25.8729,0.1786 C29.5449,0.1786 32.5229,3.1566 32.5229,6.8296 Z" id="Stroke-1"></path>
                <path d="M18.1582,12.8086 C18.1582,11.8096 17.3482,10.9996 16.3492,10.9996 C15.3512,10.9996 14.5412,11.8096 14.5412,12.8086 C14.5412,13.8076 15.3512,14.6176 16.3492,14.6176 C17.3482,14.6176 18.1582,13.8076 18.1582,12.8086 Z" id="Stroke-3"></path>
                <path d="M24.7461,12.8086 C24.7461,11.8096 23.9361,10.9996 22.9371,10.9996 C21.9381,10.9996 21.1291,11.8096 21.1291,12.8086 C21.1291,13.8076 21.9381,14.6176 22.9371,14.6176 C23.9361,14.6176 24.7461,13.8076 24.7461,12.8086 Z" id="Stroke-5"></path>
                <path d="M11.5708,12.8086 C11.5708,11.8096 10.7608,10.9996 9.7618,10.9996 C8.7628,10.9996 7.9538,11.8096 7.9538,12.8086 C7.9538,13.8076 8.7628,14.6176 9.7618,14.6176 C10.7608,14.6176 11.5708,13.8076 11.5708,12.8086 Z" id="Stroke-7"></path>
            </g>
        </g>
    </g>
</svg>