<?xml version="1.0" encoding="UTF-8"?>
<svg width="35px" height="29px" viewBox="0 0 35 29" version="1.1" xmlns="http://www.w3.org/2000/svg" xmlns:xlink="http://www.w3.org/1999/xlink">
    <!-- Generator: Sketch 51.3 (57544) - http://www.bohemiancoding.com/sketch -->
    <title>Group 2</title>
    <desc>Created with Sketch.</desc>
    <defs></defs>
    <g id="Page-1" stroke="none" stroke-width="1" fill="none" fill-rule="evenodd">
        <g id="LP-Icons---Contact-page" transform="translate(-415.000000, -408.000000)">
            <g id="Group-2" transform="translate(416.000000, 409.000000)">
                <path d="M32.5342,6.5474 L32.5342,25.4394 C32.5342,26.2344 31.8892,26.8804 31.0952,26.8804 L1.6282,26.8804 C0.8322,26.8804 0.1882,26.2344 0.1882,25.4394 L0.1882,6.5474 C0.1882,5.7524 0.8322,5.1074 1.6282,5.1074 L31.0952,5.1074 C31.8892,5.1074 32.5342,5.7524 32.5342,6.5474 Z" id="Stroke-21" stroke="#297BBA" stroke-linecap="round"></path>
                <path d="M23.2666,4.8911 L23.2666,1.9081 C23.2666,1.1131 22.6206,0.4681 21.8266,0.4681 L10.8956,0.4681 C10.1006,0.4681 9.4556,1.1131 9.4556,1.9081 L9.4556,4.8911" id="Stroke-23" stroke="#297BBA" stroke-linecap="round"></path>
                <polyline id="Stroke-25" stroke="#297BBA" stroke-linecap="round" points="0.188 9.7383 16.361 17.2483 32.534 9.7383"></polyline>
                <polygon id="Fill-27" fill="#FFFFFF" points="13.825 18.99 18.897 18.99 18.897 16.021 13.825 16.021"></polygon>
                <polygon id="Stroke-29" stroke="#297BBA" stroke-linecap="round" points="13.825 18.99 18.897 18.99 18.897 16.021 13.825 16.021"></polygon>
            </g>
        </g>
    </g>
</svg>